<svg width="120" height="120" viewBox="0 0 120 120" fill="none" xmlns="http://www.w3.org/2000/svg">
  <circle cx="60" cy="60" r="50" fill="#F0E7FF"/>
  <path d="M70 25C70 25 52 28 47 47C42 66 55 84 69 83C83 82 87 68 87 68C87 68 93 52 70 25Z" fill="#7C3AED" opacity="0.18"/>
  <path d="M48 23C45.7909 23 44 24.7909 44 27V28.5C44 38.0469 51.9536 46 61.5 46H62.5C65.7091 46 67.5 44.2091 67.5 42V41.25C67.5 35.6447 63.1053 31.25 57.5 31.25H55.3824C52.7367 31.25 50.5 29.0133 50.5 26.3676V25C50.5 23.3431 49.1569 22 47.5 22H48Z" fill="#7C3AED" opacity="0.35"/>
  <circle cx="75" cy="35" r="6" fill="#fff" opacity="0.7"/>
</svg>
